PathFileType	4	(X/Y/Z)	C:/Users/beibeiliu/ov580/test_trc/User2\sequence.41_training_dense_left.trc
DataRate	CameraRate	NumFrames	NumMarkers	Units	OrigDataRate	OrigDataStartFrame	OrigNumFrames
120	120	15	19	mm	120	1	170
Frame#	Time	ThumbCMC			ThumbMCP			ThumbIP			ThumbTip			IndexMCP			IndexPIP			IndexTip			MiddleMCP			MiddlePIP			MiddleTip			RingMCP			RingPIP			RingTip			PinkyMCP			PinkyPIP			PinkyTip			BackHand1			BackHand2			BackHand3	
		X0	Y0	Z0	X1	Y1	Z1	X2	Y2	Z2	X3	Y3	Z3	X4	Y4	Z4	X5	Y5	Z5	X6	Y6	Z6	X7	Y7	Z7	X8	Y8	Z8	X9	Y9	Z9	X10	Y10	Z10	X11	Y11	Z11	X12	Y12	Z12	X13	Y13	Z13	X14	Y14	Z14	X15	Y15	Z15	X16	Y16	Z16	X17	Y17	Z17	X18	Y18	Z18	
0	0	-158.404	-7.38339	1.41756	-137.326	-11.1825	-17.5484	-109.703	-10.9813	-39.1439	-90.3441	-14.0845	-56.5731	-172.567	28.3295	-75.071	-163.148	34.144	-99.9562	-155.652	44.1667	-130.261	-197.125	36.9774	-80.7892	-196.103	47.7518	-110.396	-196.687	57.6565	-140.528	-224.417	33.5768	-76.7918	-229.149	42.2578	-97.7765	-233.324	51.8394	-125.23	-251.939	18.2683	-60.5948	-260.49	25.5193	-79.0785	-266.899	41.5811	-98.2292	-223.161	22.7223	-24.0257	-223.075	17.8599	13.562	-188.518	20.962	-7.67962	
1	0.00833333	-160.704	-8.15965	-1.55237	-137.439	-12.333	-18.9841	-115.785	-15.0092	-42.0748	-92.712	-19.8478	-57.6966	-174.468	27.3814	-77.324	-165.959	34.6327	-104.663	-159.856	42.193	-132.493	-197.986	36.293	-83.7557	-197.5	44.798	-108.841	-199.338	55.5951	-141.332	-230.852	31.4988	-74.8741	-231.014	39.4892	-99.0159	-236.643	51.9549	-129.788	-250.781	14.0897	-58.3491	-265.423	25.6476	-82.436	-272.521	38.0779	-94.9832	-226.655	20.0846	-20.9301	-222.959	19.4066	10.851	-188.844	19.8982	-10.204	
2	0.0166667	-161.592	-9.55311	0.110437	-140.395	-14.6777	-17.028	-111.952	-16.9203	-43.5689	-97.0193	-23.4958	-55.1819	-169.731	25.9723	-80.4394	-167.438	31.7982	-103.293	-157.638	38.7093	-128.447	-201.677	34.3701	-81.1656	-199.083	43.2372	-110.719	-197.961	52.8275	-140.124	-226.722	28.5445	-74.404	-233.429	38.3658	-103.933	-239.341	48.1962	-129.536	-253.486	14.064	-58.8449	-266.48	21.5748	-81.0012	-273.84	33.756	-97.5335	-227.954	20.289	-21.6261	-223.21	17.5829	9.90484	-191.133	18.7429	-7.76999	
3	0.025	-157.742	-7.54068	-3.82958	-139.752	-13.8289	-19.8194	-113.717	-17.5787	-42.0101	-96.1316	-24.4427	-53.1046	-172.54	25.9425	-80.4415	-162.567	32.7222	-105.674	-163.097	38.457	-128.58	-199.759	33.0434	-80.1664	-199.79	43.6432	-113.053	-201.482	52.5329	-141.37	-226.718	29.0032	-77.254	-234.253	37.0653	-102.95	-236.577	45.1566	-125.748	-248.928	12.0023	-59.5947	-262.257	21.5306	-81.9138	-273.955	34.0871	-96.0234	-226.353	19.4772	-25.1121	-227.12	18.2908	8.7151	-189.707	19.8419	-10.8644	
4	0.0333333	-162.153	-7.63769	-1.4562	-137.766	-12.3393	-21.6397	-110.963	-17.0358	-39.8479	-92.272	-23.1448	-53.4966	-170.361	26.3586	-77.1445	-164.919	32.7353	-101.695	-158.288	39.7665	-127.664	-197.313	36.84	-85.3735	-197.331	44.4075	-115.972	-199.482	52.5311	-140.618	-231.282	28.5245	-76.6829	-232.888	38.6871	-104.882	-238.825	46.6469	-130.843	-254.892	13.0113	-60.5159	-261.158	20.5109	-82.1704	-274.736	34.0929	-97.1245	-227.126	21.4966	-24.696	-221.536	19.7139	6.67797	-190.646	20.0285	-11.702	
5	0.0416667	-160.744	-5.94748	-6.26329	-138.558	-11.7394	-21.8909	-111.799	-15.2764	-44.7551	-90.8074	-22.5226	-54.4569	-169.849	25.6816	-77.028	-166.921	33.7583	-107.233	-158.853	39.1434	-129.202	-201.724	35.5285	-85.9248	-198.442	43.8567	-114.268	-202.808	51.711	-143.526	-231.565	28.3664	-77.3646	-235.548	37.9287	-105.342	-239.254	44.7347	-129.192	-252.416	13.0552	-61.1901	-260.999	18.6021	-81.3631	-275.618	30.5795	-98.9089	-223.72	19.927	-22.4952	-223.878	18.386	7.64588	-187.337	19.8585	-11.4867	
6	0.05	-156.715	-6.17482	-6.29972	-134.108	-12.3106	-22.5846	-112.469	-18.7162	-42.2286	-92.0849	-23.59	-55.146	-171.291	26.6313	-83.4042	-162.432	30.4686	-104.082	-159.149	37.9406	-131.066	-200.865	34.6405	-87.5034	-196.512	41.713	-113.197	-198.411	51.8759	-145.965	-224.959	26.3223	-76.9895	-232.11	35.1278	-104.173	-233.856	45.457	-134.147	-252.969	11.3528	-61.9581	-263.627	19.9719	-85.9916	-273.725	30.9903	-101.246	-221.32	16.7514	-23.7415	-223.884	17.2937	8.31037	-189.09	20.5227	-10.7885	
7	0.0583333	-156.108	-6.53155	-2.07322	-134.398	-13.0642	-20.4105	-106.466	-15.6716	-44.2696	-87.6991	-22.7622	-53.1297	-168.955	27.1535	-81.9966	-159.37	32.3566	-108.718	-158.224	38.6959	-131.621	-197.487	34.505	-87.4976	-195.719	41.9672	-114.552	-192.755	51.7812	-148.848	-223.679	27.2261	-78.5739	-233.315	34.9391	-104.983	-234.854	42.8189	-131.431	-251.892	13.4282	-64.2291	-259.642	18.325	-84.0091	-272.427	32.3903	-104.371	-225.482	17.5997	-23.6789	-222.516	17.8132	6.10608	-184.87	21.7594	-12.0392	
8	0.0666667	-155.525	-5.79742	-4.7969	-134.194	-11.5989	-23.3544	-110.5	-15.4668	-44.1593	-87.2173	-20.346	-57.0462	-168.843	27.5366	-79.1496	-160.117	34.6646	-108.719	-151.926	40.165	-134.884	-196.556	34.7415	-83.416	-197.352	44.6622	-117.224	-194.859	51.9921	-145.934	-225.474	29.0393	-79.1113	-232.271	36.0192	-103.683	-231.699	44.6521	-133.539	-250.234	11.8916	-59.7347	-258.502	18.6263	-82.3472	-271.52	32.2196	-101.247	-222.231	18.4997	-24.7685	-222.178	17.5274	9.73567	-186.086	20.3121	-10.86	
9	0.075	-157.821	-5.58208	-2.98915	-130.855	-10.9276	-21.2068	-106.701	-14.4021	-40.2037	-90.8979	-21.3094	-54.8788	-167.839	27.7403	-79.8519	-163.812	33.932	-104.227	-156.686	40.9164	-132.106	-195.065	35.9973	-84.9159	-193.487	44.2801	-114.204	-194.461	51.2248	-144.198	-222.572	30.3396	-79.5112	-233.214	36.5245	-101.072	-233.689	43.8547	-131.254	-245.818	12.0676	-59.7878	-260.916	20.2576	-83.2654	-269.959	31.6482	-100.974	-224.957	19.4593	-23.1938	-221.868	19.7239	6.55252	-185.052	21.1025	-9.59193	
10	0.0833333	-155.854	-3.89665	-4.35612	-133.609	-10.1337	-20.8754	-108.046	-13.7764	-42.4431	-87.3276	-19.0965	-54.4126	-170.668	27.7274	-81.4836	-161.679	33.0215	-105.073	-157.795	40.7415	-134.435	-196.948	36.6645	-86.3345	-195.382	43.2698	-113.449	-199.298	51.1027	-144.219	-229.316	28.4923	-77.1273	-233.238	36.3237	-101.454	-233.861	44.978	-132.124	-246.744	12.1406	-59.7859	-260.87	20.7549	-82.1062	-270.928	31.2349	-99.9109	-225.146	19.5058	-22.643	-221.65	18.9704	5.60536	-187.568	22.4959	-10.3479	
11	0.0916667	-159.787	-5.154	-2.08955	-131.71	-9.5142	-18.0884	-106.873	-12.3243	-39.7791	-91.1537	-18.2207	-54.5447	-169.331	28.311	-81.6084	-161.708	34.1236	-107.314	-159	40.1748	-130.679	-197.671	35.7969	-83.6836	-198.158	45.1279	-115.264	-198.2	53.0711	-147.419	-227.88	28.1191	-75.5718	-230.225	36.1114	-101.589	-235.917	43.9058	-128.798	-247.567	15.4958	-64.193	-258.714	19.5082	-81.5255	-274.155	32.7436	-99.6023	-225.249	21.8586	-24.3623	-224.306	20.2069	7.82774	-185.131	21.2915	-12.4131	
12	0.1	-159.842	-2.98236	-5.92493	-136.963	-9.98785	-21.5033	-106.765	-12.5137	-40.0914	-88.1671	-16.802	-52.2618	-168.105	28.6184	-82.4119	-159.701	33.7744	-105.81	-157.356	39.9278	-129.164	-195.718	36.154	-85.6249	-197.627	44.9236	-116.908	-199.599	52.0186	-143.935	-229.444	28.9446	-77.0534	-229.434	37.2357	-104.996	-235.072	43.82	-131.162	-249.627	12.1081	-60.2511	-259.856	18.5627	-81.0178	-272.011	34.071	-100.915	-221.166	19.5818	-26.783	-221.86	18.4725	9.34418	-187.463	20.4206	-10.1062	
13	0.108333	-158.323	-4.16857	-1.78362	-132.333	-7.54627	-20.3559	-106.302	-9.18604	-41.3107	-87.6276	-14.9502	-54.5413	-172.638	29.6635	-79.1021	-163.027	35.9345	-102.819	-156.999	43.6135	-132.322	-197.424	38.8118	-86.5324	-195.948	45.8818	-116.133	-197.185	52.1303	-143.583	-226.868	30.4897	-79.3507	-231.118	35.9738	-101.703	-233.859	43.4135	-130.025	-247.548	16.0629	-64.4844	-262.076	21.9748	-85.4425	-269.902	34.3449	-101.907	-222.283	19.9886	-26.4506	-222.083	21.0273	7.36643	-187.467	23.3568	-7.34504	
14	0.116667	-156.684	-1.16081	-1.27166	-134.066	-6.20435	-16.7414	-106.759	-7.93735	-38.3544	-90.2024	-12.2259	-54.4315	-172.002	33.2658	-80.361	-164.065	39.3332	-103.75	-157.201	45.0271	-131.508	-196.604	38.4636	-82.8394	-195.345	46.7653	-114.154	-198.71	54.0195	-148.693	-226.191	31.0123	-78.1914	-231.316	37.9755	-103.664	-232.398	43.4065	-129.792	-251.442	15.9085	-63.1064	-260.44	20.8842	-81.2584	-272.437	36.1049	-102.246	-226.388	21.3503	-22.6869	-221.844	18.9587	6.80353	-189.22	24.2071	-9.44203	
